<?xml version="1.0" standalone="no"?>
<!DOCTYPE svg PUBLIC "-//W3C//DTD SVG 1.1//EN" "http://www.w3.org/Graphics/SVG/1.1/DTD/svg11.dtd" >
<!--
2013-9-30: Created.
-->
<svg>
<metadata>
Created by iconfont
</metadata>
<defs>

<font id="iconfont" horiz-adv-x="1024" >
  <font-face
    font-family="iconfont"
    font-weight="500"
    font-stretch="normal"
    units-per-em="1024"
    ascent="896"
    descent="-128"
  />
    <missing-glyph />
    
    <glyph glyph-name="delete" unicode="&#58883;" d="M344.4593 104.61800000000005c15.4235 0 27.902 12.4795 27.902 27.902V439.441408c0 15.4225-12.4795 27.902-27.902 27.902-15.4225 0-27.902-12.4805-27.902-27.902v-306.92249599999997C316.5573 117.09640000000002 329.0368 104.61800000000005 344.4593 104.61800000000005zM511.872 104.61800000000005c15.4235 0 27.902 12.4795 27.902 27.902V439.441408c0 15.4225-12.4795 27.902-27.902 27.902s-27.902-12.4805-27.902-27.902v-306.92249599999997C483.969 117.09640000000002 496.4485 104.61800000000005 511.872 104.61800000000005zM679.2837 104.61800000000005c15.4235 0 27.902 12.4795 27.902 27.902V439.441408c0 15.4225-12.4795 27.902-27.902 27.902s-27.902-12.4805-27.902-27.902v-306.92249599999997C651.3818 117.09640000000002 663.8602 104.61800000000005 679.2837 104.61800000000005zM818.7935 746.3639000000001H703.2340479999999c-12.4795 48.0113-55.8039 83.7059-107.6572 83.7059H428.16512000000006c-51.8533 0-95.1777-35.6946-107.6572-83.7059H204.949504c-61.5526 0-111.6078-50.0828-111.6078-111.6078v-27.902976h27.901952v-27.901952h55.803904v-530.138112c0-61.526 50.0552-111.6078 111.6078-111.6078h446.432256c61.5547 0 111.6078 50.0818 111.6078 111.6078V578.952192h55.803904v27.901952h27.901952v27.902976C930.4013 696.2821 880.3482 746.3639000000001 818.7935 746.3639000000001zM428.1651 774.2659h167.411712c20.5445 0 38.3652-11.308 48.0389-27.902H380.12723200000005C389.801 762.9578 407.6206 774.2659 428.1651 774.2659zM790.8915 48.81410000000005c0-30.7896-25.0399-55.8039-55.8039-55.8039H288.65536000000003c-30.763 0-59.6726 25.0143-59.6726 55.8039l3.8687 530.1381h558.040064V48.814080000000104zM149.1446 634.7561000000001c0 30.7896 25.0419 55.8039 55.8039 55.8039H818.793472c30.7651 0 55.8039-25.0143 55.8039-55.8039H149.144576z"  horiz-adv-x="1024" />

    
    <glyph glyph-name="mima" unicode="&#58887;" d="M511.999488-69.813786c-156.641851 0-283.645494 126.969786-283.645494 283.633872 0 63.706951 21.273361 122.316813 56.729303 169.653935L285.083298 610.906893c0 125.308961 101.603119 226.907916 226.91619 226.907916 125.314095 0 226.91619-101.598956 226.91619-226.907916l0-227.433896c35.455943-47.337121 56.730327-105.946984 56.730327-169.653935C795.646005 57.156 668.642363-69.813786 511.999488-69.813786zM682.187399 610.906893c0 93.981465-76.202595 170.180937-170.18791 170.180937-93.985315 0-170.18791-76.198449-170.18791-170.180937l0-170.567747c47.449583 35.703153 106.256283 57.113789 170.18791 57.113789 63.959258 0 122.738328-21.410636 170.18791-57.113789L682.187399 610.906893zM688.974243 355.635999l-6.786845 0 0 7.922437c-41.577611 47.212278-102.322533 77.168544-170.18791 77.168544-125.314095 0-226.91619-101.598956-226.91619-226.907916s101.603119-226.906893 226.91619-226.906893c125.314095 0 226.91619 101.597933 226.91619 226.906893C738.916702 267.498636 720.163848 316.775946 688.974243 355.635999zM511.999488 100.365104c-15.677693 0-28.36414 12.685927-28.36414 28.364001l0 113.453958c0 15.677051 12.686447 28.362978 28.36414 28.362978s28.365163-12.684904 28.365163-28.362978l0-113.453958C540.364652 113.052055 527.678205 100.365104 511.999488 100.365104z"  horiz-adv-x="1024" />

    
    <glyph glyph-name="tuceng" unicode="&#58880;" d="M938.633323 325.78411 554.672082 153.199427c-36.761735-15.990183-51.399706-15.990183-85.329837 0L85.366677 325.78411c-20.383048 10.82658-25.879451 50.886971-25.879451 72.745814 25.630777-14.637372 61.674122-30.959106 60.334559-30.131251l392.178726-180.787506 392.19203 180.787506c0.662106 0.165776 35.628888 17.786085 60.320232 30.131251C964.512773 376.160451 957.57959 334.622406 938.633323 325.78411zM938.633323 506.586966 554.672082 333.987956c-36.761735-15.991206-51.399706-15.991206-85.329837 0L85.366677 506.586966c-30.160116 16.004509-29.221706 66.407456 0 85.229127L469.342245 794.546354c33.930131 16.943904 55.155394 17.882276 85.329837 0l383.961241-202.730261C967.854005 575.811584 966.887964 519.774313 938.633323 506.586966zM511.999488 760.134613 119.820762 549.201529l392.178726-165.252695L904.192541 549.201529 511.999488 760.134613zM511.999488 760.134613M511.999488 6.797056l392.19203 180.815135c0.662106 0.165776 35.628888 17.786085 60.320232 30.130228 0-22.369473-6.93216-63.907519-25.879451-72.745814L554.672082-27.615709c-36.761735-15.990183-51.399706-15.990183-85.329837 0L85.366677 144.997628c-20.383048 10.82658-25.879451 50.872644-25.879451 72.745814 25.630777-14.637372 61.674122-30.959106 60.334559-30.130228L511.999488 6.797056z"  horiz-adv-x="1024" />

    
    <glyph glyph-name="dingzi" unicode="&#58881;" d="M958.662292-38.670485l-23.973977-23.972994-241.827396 210.368218-151.05437-151.019529 0 89.372493L214.094662 413.777187l0 0-148.75593 9.106402L473.13068 830.644503l9.091425-148.750859 327.711888-327.69846 89.376155 0-151.05437-151.019529L958.662292-38.670485zM439.498344 639.157307 256.818423 456.499198l327.697561-327.71381 182.708575 182.672436L439.498344 639.157307z"  horiz-adv-x="1024" />

    
    <glyph glyph-name="liebiao" unicode="&#58882;" d="M930.960258 351.773018L350.861046 351.773018c-17.813421 0-32.227279 14.414291-32.227279 32.226982 0 17.797341 14.413858 32.226982 32.227279 32.226982L930.960258 416.226982c17.813421 0 32.228303-14.429641 32.228303-32.226982C963.188561 366.187309 948.773679 351.773018 930.960258 351.773018zM930.960258 609.583758L350.861046 609.583758c-17.813421 0-32.227279 14.429641-32.227279 32.226982s14.413858 32.226982 32.227279 32.226982L930.960258 674.037722c17.813421 0 32.228303-14.429641 32.228303-32.226982S948.773679 609.583758 930.960258 609.583758zM125.267021 61.73529499999995c-35.595118 0-64.455582 28.859281-64.455582 64.451918 0 35.593659 28.860464 64.452941 64.455582 64.452941s64.455582-28.859281 64.455582-64.452941C189.722603 90.59457699999996 160.862139 61.73529499999995 125.267021 61.73529499999995zM125.267021 319.547059c-35.595118 0-64.455582 28.859281-64.455582 64.452941 0 35.593659 28.860464 64.452941 64.455582 64.452941s64.455582-28.859281 64.455582-64.452941C189.722603 348.406341 160.862139 319.547059 125.267021 319.547059zM125.267021 577.357799c-35.595118 0-64.455582 28.859281-64.455582 64.452941s28.860464 64.452941 64.455582 64.452941 64.455582-28.859281 64.455582-64.452941S160.862139 577.357799 125.267021 577.357799zM350.861046 158.41521799999998L930.960258 158.41521799999998c17.813421 0 32.228303-14.414291 32.228303-32.226982 0-17.811668-14.414882-32.225959-32.228303-32.225959L350.861046 93.96227799999997c-17.813421 0-32.227279 14.414291-32.227279 32.225959C318.633766 144.00092700000005 333.047625 158.41521799999998 350.861046 158.41521799999998z"  horiz-adv-x="1024" />

    
    <glyph glyph-name="ditu" unicode="&#59030;" d="M812.8 344.768c56 72.384 99.008 133.824 99.008 203.328 0 112.896-94.848 204.352-211.968 204.352s-211.968-91.52-211.968-204.352c0-62.4 36.864-121.984 85.056-186.368l-57.984-18.56L402.56 378.688C416.448 401.92 425.344 424.448 425.344 448.704c0 64.064-51.84 115.968-115.712 115.968-63.936 0-115.712-51.904-115.712-115.968 0-26.752 11.712-52.672 28.672-79.488L222.08 369.152 64 15.488l238.848 90.112 217.344-90.112 204.032 90.112L960 15.488 812.8 344.768zM699.904 647.36c56.832 0 102.912-44.416 102.912-99.264s-46.144-99.328-102.912-99.328c-56.896 0-102.912 44.48-102.912 99.328S643.008 647.36 699.904 647.36zM309.696 505.024c30.976 0 56.192-25.216 56.192-56.32 0-31.04-25.216-56.32-56.192-56.32-31.04 0-56.192 25.28-56.192 56.32C253.504 479.808 278.656 505.024 309.696 505.024zM720.128 159.168l-200.064-86.656-213.248 86.656-159.04-72.448 91.136 235.136 14.848 2.816c18.112-24.192 37.888-49.728 55.936-78.08C332.16 282.496 355.776 312.32 375.936 339.712L515.072 295.04l87.104 28.352c31.872-40.896 66.176-84.032 97.664-131.584 29.504 45.312 60.032 84.864 88.64 121.536l91.904-229.504L720.128 159.168z"  horiz-adv-x="1024" />

    
    <glyph glyph-name="logout" unicode="&#58955;" d="M184.553 128v512c0 38.54 31.279 69.818 69.818 69.818h302.545l0 46.545h-325.818c-51.433 0-93.091-41.658-93.091-93.091v-558.545c0-51.433 41.658-93.091 93.091-93.091h325.818v46.545h-302.545c-38.586 0-69.818 31.279-69.818 69.818zM924.113 400.477l-164.585 164.585c-9.076 9.076-23.831 9.076-32.908 0-9.076-9.076-9.076-23.831 0-32.908l124.835-124.835h-457.449c-12.847 0-23.273-10.426-23.273-23.273s10.426-23.273 23.273-23.273h457.449l-124.835-124.835c-9.076-9.076-9.076-23.831 0-32.908 9.076-9.076 23.831-9.076 32.908 0l164.585 164.585c9.076 9.030 9.076 23.738 0 32.861z"  horiz-adv-x="1024" />

    
    <glyph glyph-name="jichu" unicode="&#59119;" d="M950.441 620.204v-407.645c0-12.39-3.185-23.886-9.555-34.502s-15.043-18.933-26.009-24.946l-373.675-203.824c-9.908-5.655-20.699-8.492-32.375-8.492s-22.476 2.837-32.378 8.492l-373.675 203.824c-10.973 6.012-19.638 14.331-26.009 24.946-6.37 10.614-9.554 22.111-9.554 34.502v407.645c0 14.148 4.063 27.069 12.208 38.746 8.137 11.677 18.927 19.987 32.378 24.946l373.675 135.881c7.78 2.83 15.568 4.246 23.355 4.246 7.779 0 15.567-1.417 23.353-4.246l373.675-135.881c13.442-4.959 24.233-13.27 32.375-24.946 8.137-11.677 12.208-24.598 12.208-38.746zM508.828 486.447l370.489 134.82-370.489 134.821-370.49-134.82 370.49-134.821zM542.798 27.313999999999965l339.702 185.245v337.581l-339.702-123.675v-399.153z"  horiz-adv-x="1024" />

    
    <glyph glyph-name="money" unicode="&#58968;" d="M341.725592 111.34605799999997c-145.715599 0-263.904867 65.080843-264.621165 145.408614 0-30.698511-0.102328-57.610872-0.102328-57.610872 0-80.737084 118.496253-146.124913 264.621165-146.124913 146.227241 0 264.621165 65.387829 264.621165 146.124913L606.244429 257.47096999999997C606.346757 176.73388599999998 487.952833 111.34605799999997 341.725592 111.34605799999997L341.725592 111.34605799999997M341.725592 9.733985999999959C196.009993 9.733985999999959 77.820725 74.71250099999997 77.104427 155.14260000000002c0-30.698511-0.102328-57.610872-0.102328-57.610872 0-80.737084 118.496253-146.124913 264.621165-146.124913 146.227241 0 264.621165 65.387829 264.621165 146.124913l0 58.224843C606.346757 75.12181499999997 487.952833 9.733985999999959 341.725592 9.733985999999959L341.725592 9.733985999999959M341.725592 9.733985999999959L341.725592 9.733985999999959zM680.432497 179.08743900000002c-8.493255 0-16.884181 0.306985-25.172779 0.716299-0.306985-2.558209-0.306985-5.116419-0.716299-7.674628 1.739582-5.116419 2.660538-10.64215 2.660538-16.372539l0-34.280004c7.674628-0.409313 15.451584-0.61397 23.330868-0.61397 146.227241 0 264.621165 65.387829 264.621165 146.124913l0 58.224843C945.155991 244.47526700000003 826.659738 179.08743900000002 680.432497 179.08743900000002L680.432497 179.08743900000002M680.432497 179.08743900000002L680.432497 179.08743900000002zM680.432497 280.69951000000003c-8.493255 0-16.884181 0.306985-25.172779 0.716299-0.306985-2.558209-0.306985-5.116419-0.716299-7.674628 1.739582-5.116419 2.660538-10.64215 2.660538-16.372539l0-34.280004c7.674628-0.409313 15.451584-0.61397 23.330868-0.61397 146.227241 0 264.621165 65.387829 264.621165 146.124913l0 58.224843C945.155991 346.08733900000004 826.659738 280.69951000000003 680.432497 280.69951000000003L680.432497 280.69951000000003M680.432497 280.69951000000003L680.432497 280.69951000000003zM680.432497 484.025982c-145.715599 0-263.904867 65.080843-264.621165 145.408614 0-30.698511-0.102328-57.610872-0.102328-57.610872 0-34.484661 21.795943-66.104127 57.917857-91.072249 36.633557-10.02818 69.173978-24.047167 96.290996-41.545318 33.666034-8.493255 71.015889-13.405016 110.412311-13.405016 146.227241 0 264.621165 65.387829 264.621165 146.124913l0 58.224843C945.155991 549.3114820000001 826.659738 484.025982 680.432497 484.025982L680.432497 484.025982M680.432497 484.025982L680.432497 484.025982zM680.432497 382.31158200000004c-17.805136 0-35.098631 1.023284-51.982812 2.865194 13.405016-18.521435 22.512241-38.782452 26.298391-60.373738 8.493255-0.511642 16.986509-0.716299 25.582093-0.716299 146.227241 0 264.621165 65.387829 264.621165 146.124913l0 58.224843C945.155991 447.69941 826.659738 382.31158200000004 680.432497 382.31158200000004L680.432497 382.31158200000004M680.432497 382.31158200000004L680.432497 382.31158200000004zM680.432497 819.560708c-146.124913 0-264.621165-65.387829-264.621165-146.124913 0-80.737084 118.496253-146.124913 264.621165-146.124913 146.227241 0 264.621165 65.387829 264.621165 146.124913C945.155991 754.172879 826.659738 819.560708 680.432497 819.560708L680.432497 819.560708M680.432497 819.560708L680.432497 819.560708zM341.725592 446.880783c-146.124913 0-264.621165-65.387829-264.621165-146.124913 0-80.737084 118.496253-146.124913 264.621165-146.124913 146.227241 0 264.621165 65.387829 264.621165 146.124913C606.346757 381.595283 487.952833 446.880783 341.725592 446.880783L341.725592 446.880783M341.725592 446.880783L341.725592 446.880783z"  horiz-adv-x="1024" />

    
    <glyph glyph-name="tubiao" unicode="&#58992;" d="M929.295093 22.525032 119.673029 22.525032 63.904067 22.525032 63.904067 78.396323l0 586.341561c0 15.451584 12.484061 27.935645 27.935645 27.935645 15.451584 0 27.935645-12.484061 27.935645-27.935645l0-586.341561 809.622065 0c15.451584 0 27.935645-12.484061 27.935645-27.935645C957.230738 35.009094 944.746677 22.525032 929.295093 22.525032L929.295093 22.525032zM845.590487 134.267613l-55.87129 0c-30.800839 0-55.87129 24.968122-55.87129 55.87129L733.847906 525.059658c0 30.800839 24.968122 55.87129 55.87129 55.87129l55.87129 0c30.800839 0 55.87129-24.968122 55.87129-55.87129l0-335.023084C901.461777 159.235735 876.391326 134.267613 845.590487 134.267613L845.590487 134.267613zM566.438693 134.267613l-55.87129 0c-30.800839 0-55.87129 24.968122-55.87129 55.87129L454.696113 692.5712c0 30.800839 24.968122 55.87129 55.87129 55.87129l55.87129 0c30.800839 0 55.87129-24.968122 55.87129-55.87129l0-502.534626C622.207655 159.235735 597.239532 134.267613 566.438693 134.267613L566.438693 134.267613zM287.184571 134.267613l-55.87129 0c-30.800839 0-55.87129 24.968122-55.87129 55.87129L175.441991 413.419406c0 30.800839 24.968122 55.87129 55.87129 55.87129l55.87129 0c30.800839 0 55.87129-24.968122 55.87129-55.87129l0-223.382832C343.055861 159.235735 318.087739 134.267613 287.184571 134.267613L287.184571 134.267613z"  horiz-adv-x="1024" />

    
    <glyph glyph-name="pie" unicode="&#58910;" d="M479.651244 766.78201C250.383584 766.78201 64.523549 580.9240219999999 64.523549 351.65226800000005c0-229.265614 185.860035-415.127695 415.127695-415.127695 229.27073 0 415.127695 185.862082 415.127695 415.127695L479.651244 351.65226800000005 479.651244 766.78201zM544.345686 831.476451l0-415.129742 415.129742 0C959.475428 645.618463 773.616416 831.476451 544.345686 831.476451z"  horiz-adv-x="1024" />

    
    <glyph glyph-name="tree" unicode="&#58911;" d="M992 216.65599999999995l-96 0L896 383.312c0 35.376-28.656 64.032-64 64.032L536 447.344l0 104L624 551.344c17.664 0 32 14.32 32 32l0 128c0 17.664-14.336 32-32 32L400 743.344c-17.664 0-32-14.336-32-32l0-128c0-17.68 14.336-32 32-32l88 0 0-104L192 447.344c-35.344 0-64-28.656-64-64.032l0-166.656L32 216.65599999999995c-17.664 0-32-14.32-32-32l0-128c0-17.664 14.336-32 32-32l224 0c17.664 0 32 14.336 32 32l0 128c0 17.68-14.336 32-32 32l-80 0 0 134.656c0 35.344 12.656 48.032 48 48.032l264 0 0-182.688L400 216.65599999999995c-17.664 0-32-14.32-32-32l0-128c0-17.664 14.336-32 32-32l224 0c17.664 0 32 14.336 32 32l0 128c0 17.68-14.336 32-32 32l-88 0L536 399.344 800 399.344c35.344 0 48-12.688 48-48.032l0-134.656-80 0c-17.664 0-32-14.32-32-32l0-128c0-17.664 14.336-32 32-32l224 0c17.664 0 32 14.336 32 32l0 128C1024 202.336 1009.664 216.65599999999995 992 216.65599999999995z"  horiz-adv-x="1024" />

    
    <glyph glyph-name="yingyong" unicode="&#59001;" d="M486.691591 157.320281c0-114.043383-92.448552-206.490911-206.490911-206.490911S73.708745 43.276898 73.708745 157.320281c0 114.042359 92.449575 206.490911 206.491934 206.490911L417.860946 363.811192l68.830645 0 0-68.830645L486.691591 157.320281 486.691591 157.320281zM532.579711 157.320281c0-114.043383 92.448552-206.490911 206.490911-206.490911s206.490911 92.447529 206.490911 206.490911c0 114.042359-92.448552 206.490911-206.490911 206.490911L601.410356 363.811192l-68.830645 0 0-68.830645L532.579711 157.320281 532.579711 157.320281zM486.691591 616.1892c0 114.043383-92.448552 206.490911-206.490911 206.490911S73.708745 730.232582 73.708745 616.1892s92.449575-206.490911 206.491934-206.490911L417.860946 409.698289l68.830645 0L486.691591 478.528933 486.691591 616.1892 486.691591 616.1892zM532.579711 616.1892 532.579711 616.1892c0 114.043383 92.448552 206.490911 206.490911 206.490911s206.490911-92.448552 206.490911-206.490911-92.448552-206.490911-206.490911-206.490911L601.410356 409.698289l-68.830645 0L532.579711 478.528933 532.579711 616.1892 532.579711 616.1892z"  horiz-adv-x="1024" />

    
    <glyph glyph-name="yu" unicode="&#58897;" d="M436.1 125.9c-13.7 0-24.8-11.1-24.8-24.8v-74.5c0-13.7 11.1-24.8 24.8-24.8 13.7 0 24.8 11.1 24.8 24.8v74.5c0.1 13.7-11.1 24.8-24.8 24.8z m149 0c-13.7 0-24.8-11.1-24.8-24.8v-74.5c0-13.7 11.1-24.8 24.8-24.8 13.7 0 24.8 11.1 24.8 24.8v74.5c0 13.7-11.1 24.8-24.8 24.8z m-297.9 0c-13.7 0-24.8-11.1-24.8-24.8v-74.5c0-13.7 11.1-24.8 24.8-24.8 13.7 0 24.8 11.1 24.8 24.8v74.5c0 13.7-11.1 24.8-24.8 24.8zM686 671.2C649.6 745.1 573.7 796 485.8 796c-117.9 0-214.2-91.4-222.5-207.1-86.6-24.7-149.7-100.4-149.7-190 0-105.7 87.9-191.9 198.6-198 0 0 355.7-0.6 359.9-0.6 130.2 0 235.8 105.6 235.8 235.8-0.2 125.5-98.3 227.8-221.9 235.1z m48-545.3c-13.7 0-24.8-11.1-24.8-24.8v-74.5c0-13.7 11.1-24.8 24.8-24.8 13.7 0 24.8 11.1 24.8 24.8v74.5c0 13.7-11.1 24.8-24.8 24.8z"  horiz-adv-x="1024" />

    
    <glyph glyph-name="yun" unicode="&#58898;" d="M709.3 610.2C668.3 693.3 583 750.6 484 750.6c-132.6 0-241-102.8-250.4-233-97.5-27.8-168.5-113-168.5-213.8 0-118.9 98.8-216.6 223.4-223.4h418.9c138.7 0 251.3 118.8 251.3 265.3 0 141.2-110.3 256.2-249.4 264.5z"  horiz-adv-x="1024" />

    
    <glyph glyph-name="import" unicode="&#59031;" d="M487 222.8v574.1h50v-574.1l208.3 208.3 35.4-35.4-268.7-268.6-268.7 268.7 35.4 35.4 208.3-208.4zM832.1 651.1v-50h74.9v-580h-790v580h74.9v50h-124.9v-680h890v680h-124.9z"  horiz-adv-x="1024" />

    
    <glyph glyph-name="export" unicode="&#59032;" d="M278.7 492.8l-35.4 35.4 268.7 268.7 268.7-268.7-35.4-35.4-208.3 208.4v-574.1h-50v574.1l-208.3-208.4zM832.1 651.1v-50h74.9v-580h-790v580h74.9v50h-124.9v-680h890v680h-124.9z"  horiz-adv-x="1024" />

    
    <glyph glyph-name="search" unicode="&#59037;" d="M750.3 697.3C598 849.6 351.1 849.6 198.7 697.3s-152.3-399.2 0-551.5C345.1-0.6000000000000227 578.8-6.2999999999999545 732 128.70000000000005l172.1-172.1 35.4 35.4-172.1 171.9c135 153.2 129.3 387-17.1 533.4z m39.3-403.8c-17.1-42.1-42.2-80-74.7-112.4-32.5-32.5-70.3-57.6-112.4-74.7-40.7-16.5-83.8-24.9-128-24.9s-87.2 8.4-128 24.9c-42.1 17.1-80 42.2-112.4 74.7s-57.6 70.3-74.7 112.4c-16.5 40.7-24.9 83.8-24.9 128s8.4 87.2 24.9 128c17.1 42.1 42.2 80 74.7 112.4s70.3 57.6 112.4 74.7c40.7 16.5 83.8 24.9 128 24.9s87.2-8.4 128-24.9c42.1-17.1 80-42.2 112.4-74.7 32.5-32.5 57.6-70.3 74.7-112.4 16.5-40.7 24.9-83.8 24.9-128s-8.4-87.3-24.9-128z"  horiz-adv-x="1024" />

    
    <glyph glyph-name="back" unicode="&#59075;" d="M928 384c0-212.6-172.4-385-385-385-195.7 0-357.3 146-381.8 335h50.5c4.1-27.6 11.7-54.5 22.6-80.4 16.9-39.9 41-75.7 71.8-106.5 30.8-30.8 66.6-54.9 106.5-71.8C453.9 57.89999999999998 497.8 49 543 49s89.1 8.9 130.4 26.3c39.9 16.9 75.7 41 106.5 71.8 30.8 30.8 54.9 66.6 71.8 106.5C869.2 294.9 878 338.79999999999995 878 384s-8.9 89.1-26.3 130.4c-16.9 39.9-41 75.7-71.8 106.5-30.8 30.8-66.6 54.9-106.5 71.8C632.1 710.1 588.3 719 543 719s-89.1-8.9-130.4-26.3c-39.9-16.9-75.7-41-106.5-71.8-30.8-30.8-54.9-66.6-71.8-106.5-6.8-16.2-12.4-32.7-16.5-49.6l69.7 32.5 21.1-45.3-145-67.6L96 529.3l45.3 21.1 30.3-64.9C216.1 648.9 365.5 769 543 769c212.6 0 385-172.4 385-385z"  horiz-adv-x="1024" />

    
    <glyph glyph-name="refresh" unicode="&#59076;" d="M132.6 384.3L65 529.3l45.3 21.1 30.3-64.9C185.1 648.9 334.5 769 512 769c195.7 0 357.3-146 381.8-335h-50.5c-4.1 27.6-11.7 54.5-22.6 80.4-16.9 39.9-41 75.7-71.8 106.5-30.8 30.8-66.6 54.9-106.5 71.8C601.1 710.1 557.2 719 512 719s-89.1-8.9-130.4-26.3c-39.9-16.9-75.7-41-106.5-71.8-30.8-30.8-54.9-66.6-71.8-106.5-6.8-16.2-12.4-32.7-16.5-49.6l69.7 32.5 21.1-45.3-145-67.7z m758.8-0.6l-145-67.6 21.1-45.3 69.7 32.5c-4.2-16.9-9.7-33.5-16.5-49.6-16.9-39.9-41-75.7-71.8-106.5-30.8-30.8-66.6-54.9-106.5-71.8C601.1 57.89999999999998 557.2 49 512 49s-89.1 8.9-130.4 26.3c-39.9 16.9-75.7 41-106.5 71.8-30.8 30.8-54.9 66.6-71.8 106.5-10.9 25.9-18.5 52.8-22.6 80.4h-50.5C154.7 145 316.3-1 512-1c177.5 0 326.9 120.1 371.4 283.4l30.3-64.9 45.3 21.1-67.6 145.1z"  horiz-adv-x="1024" />

    
    <glyph glyph-name="cloud" unicode="&#59090;" d="M977.4 206.60000000000002c0-116.6-94-211.3-210.3-212.5H682v50h84.6c43 0.4 83.4 17.5 113.8 48.1 30.3 30.6 47 71.2 47 114.3 0 25.7-5.8 50.2-17.2 72.9-10.9 21.7-26.9 41-46.3 55.9l-32.3 24.9 17.8 36.6c15.1 31.1 22.8 64.6 22.8 99.4 0 30.7-6 60.5-17.9 88.5-11.5 27.1-27.9 51.4-48.8 72.3s-45.2 37.3-72.3 48.8c-28 11.8-57.8 17.9-88.5 17.9-36.3 0-71-8.3-103.1-24.7-30.7-15.6-57.9-38.5-78.7-66l-16.6-22-27.4 2.2c-5.4 0.4-10.9 0.7-16.1 0.7-48.5 0-94.9-17.9-130.7-50.5-35.6-32.3-57.9-76.3-62.8-123.9l-2.5-24.1-20.4-13c-27.1-17.3-49.7-41.2-65.4-69.2-16.1-28.8-24.7-61.6-24.7-94.9 0-52 20.2-100.8 57-137.5 36.7-36.7 85.6-57 137.5-57 1.1 0 2.5 0 3.8 0.1l47.1-0.1v-50h-46.2v0.1c-1.6 0-3.2-0.1-4.7-0.1-135 0-244.5 109.5-244.5 244.5 0 86.7 45.1 162.8 113.2 206.3C172.3 568 276.4 664.1 402.9 664.1c6.8 0 13.5-0.3 20.2-0.8 50.6 67.2 131.1 110.6 221.7 110.6 153.3 0 277.5-124.2 277.5-277.5 0-43.5-10-84.7-27.9-121.3 50.5-38.9 83-99.9 83-168.5z m-232.1 46.9L512 486.8 278.7 253.5l35.4-35.4 173 173V45h50V391.1l173-173 35.2 35.4z"  horiz-adv-x="1024" />

    
    <glyph glyph-name="add" unicode="&#59091;" d="M197.3 698.7c-173.8-173.8-173.8-455.5 0-629.3s455.5-173.8 629.3 0 173.8 455.5 0 629.3-455.5 173.7-629.3 0zM907 384c0-51.3-9.7-101.3-28.9-148.7-19.9-49-49.1-92.9-86.8-130.6s-81.7-66.9-130.6-86.8c-47.4-19.2-97.4-28.9-148.7-28.9-51.3 0-101.3 9.7-148.7 28.9-49 19.9-92.9 49.1-130.6 86.8s-66.9 81.7-86.8 130.6c-19.2 47.4-28.9 97.4-28.9 148.7 0 51.3 9.7 101.3 28.9 148.7 19.9 49 49.1 92.9 86.8 130.6s81.7 66.9 130.6 86.8c47.4 19.2 97.4 28.9 148.7 28.9 51.3 0 101.3-9.7 148.7-28.9 49-19.9 92.9-49.1 130.6-86.8s66.9-81.7 86.8-130.6c19.2-47.4 28.9-97.4 28.9-148.7zM537 634v-225h225v-50h-225v-225h-50v225h-225v50h225v225h50z"  horiz-adv-x="1024" />

    
    <glyph glyph-name="reduce" unicode="&#59107;" d="M750.3 697.3c-152.3 152.3-399.2 152.3-551.6 0s-152.3-399.2 0-551.5c146.4-146.4 380.1-152.1 533.3-17.1l172.1-172.1 35.4 35.4-172.1 171.9c135 153.2 129.3 387-17.1 533.4zM789.6 293.5c-17.1-42.1-42.2-80-74.7-112.4-32.5-32.5-70.3-57.6-112.4-74.7-40.7-16.5-83.8-24.9-128-24.9s-87.2 8.4-128 24.9c-42.1 17.1-80 42.2-112.4 74.7s-57.6 70.3-74.7 112.4c-16.5 40.7-24.9 83.8-24.9 128s8.4 87.2 24.9 128c17.1 42.1 42.2 80 74.7 112.4s70.3 57.6 112.4 74.7c40.7 16.5 83.8 24.9 128 24.9s87.2-8.4 128-24.9c42.1-17.1 80-42.2 112.4-74.7 32.5-32.5 57.6-70.3 74.7-112.4 16.5-40.7 24.9-83.8 24.9-128s-8.4-87.3-24.9-128zM671 394h-400v50h400v-50z"  horiz-adv-x="1024" />

    
    <glyph glyph-name="enlarge" unicode="&#59108;" d="M750.3 697.3c-152.3 152.3-399.2 152.3-551.6 0s-152.3-399.2 0-551.5c146.4-146.4 380.1-152.1 533.3-17.1l172.1-172.1 35.4 35.4-172.1 171.9c135 153.2 129.3 387-17.1 533.4zM789.6 293.5c-17.1-42.1-42.2-80-74.7-112.4-32.5-32.5-70.3-57.6-112.4-74.7-40.7-16.5-83.8-24.9-128-24.9s-87.2 8.4-128 24.9c-42.1 17.1-80 42.2-112.4 74.7s-57.6 70.3-74.7 112.4c-16.5 40.7-24.9 83.8-24.9 128s8.4 87.2 24.9 128c17.1 42.1 42.2 80 74.7 112.4s70.3 57.6 112.4 74.7c40.7 16.5 83.8 24.9 128 24.9s87.2-8.4 128-24.9c42.1-17.1 80-42.2 112.4-74.7 32.5-32.5 57.6-70.3 74.7-112.4 16.5-40.7 24.9-83.8 24.9-128s-8.4-87.3-24.9-128zM671 394h-175v-175h-50v175h-175v50h175v175h50v-175h175v-50z"  horiz-adv-x="1024" />

    
    <glyph glyph-name="activity" unicode="&#59102;" d="M799.84 752H672V768a32 32 0 0 1-64 0v-16h-192V768a32 32 0 0 1-64 0v-16H223.712C188.576 752 160 721.984 160 685.088V592h704V685.088c0 36.896-28.768 66.912-64.16 66.912M640 400a32 32 0 0 0 0-64h-256a32 32 0 0 0 0 64h256z m-288-192a32 32 0 0 0 32 32h256a32 32 0 0 0 0-64h-256a32 32 0 0 0-32 32z m480 320H160v-477.12c0-36.864 28.608-66.88 63.744-66.88h576.512c35.136 0 63.744 30.016 63.744 66.88V528h-32z"  horiz-adv-x="1024" />

    
    <glyph glyph-name="camera" unicode="&#59111;" d="M528 512c88.224 0 160-71.776 160-160s-71.776-160-160-160-160 71.776-160 160 71.776 160 160 160m320 105.728a62.688 62.688 0 0 1-15.968 2.24h-104.832L704.704 672l-6.688 15.488C686.016 715.136 654.272 736 624.128 736h-192.288c-30.144 0-61.888-20.864-73.856-48.544L351.296 672l-22.496-52H223.968c-5.536 0-10.848-0.96-15.968-2.272a64.16 64.16 0 0 1-48-62.08v-439.36c0-29.888 20.448-54.816 48-62.016 5.12-1.312 10.432-2.272 15.968-2.272h608.064c5.536 0 10.848 0.96 15.968 2.24a64.224 64.224 0 0 1 48 62.048v439.36c0 29.92-20.48 54.912-48 62.08"  horiz-adv-x="1024" />

    
    <glyph glyph-name="collection" unicode="&#59114;" d="M877.632 439.2c14.976 14.72 20.384 32.96 14.816 49.984-5.536 17.024-20.608 28.544-41.344 31.584l-190.24 27.84c-6.976 1.024-18.464 9.472-21.6 15.904l-85.12 173.696c-9.28 18.944-24.896 29.76-42.88 29.76-17.952 0-33.6-10.816-42.816-29.76l-85.12-173.696c-3.104-6.432-14.592-14.848-21.6-15.904l-190.24-27.84c-20.704-3.04-35.776-14.56-41.344-31.584-5.568-17.024-0.16-35.232 14.816-49.984l137.696-135.232c5.088-4.992 9.536-18.816 8.32-25.92l-32.48-190.912c-3.552-20.832 2.752-38.816 17.344-49.344 7.52-5.44 16.224-8.16 25.472-8.16 8.576 0 17.6 2.336 26.56 7.04l170.176 90.176c6.048 3.2 20.448 3.2 26.528 0l170.144-90.112c18.528-9.856 37.504-9.44 52.064 1.056 14.56 10.528 20.864 28.48 17.344 49.28l-32.48 190.976c-1.28 7.104 3.2 20.928 8.32 25.92l137.664 135.232z"  horiz-adv-x="1024" />

    
    <glyph glyph-name="document" unicode="&#59123;" d="M833.728 555.8720000000001l-163.904 178.144c-7.744 8.448-18.4 15.552-29.824 21.28v-211.2l202.4-0.064c-2.752 4.192-5.536 8.448-8.64 11.84M640 320h-256a32 32 0 1 0 0 64h256a32 32 0 1 0 0-64m0-160h-256a32 32 0 1 0 0 64h256a32 32 0 1 0 0-64m223.808 320h-223.744A64.128 64.128 0 0 0 576 544.1279999999999V768H223.808A64 64 0 0 1 160 703.936v-639.84A64 64 0 0 1 223.744 0h576.512A64 64 0 0 1 864 64.15999999999997V478.368c0 0.544-0.16 1.12-0.192 1.664"  horiz-adv-x="1024" />

    
    <glyph glyph-name="download" unicode="&#59199;" d="M915.1 370.1h-253.1v270.9h-300v-270.8h-253.1l403.1-423.2 403.1 423.1zM662 320.1h136.4l-286.4-300.6-286.4 300.6h186.4v270.9h200v-270.8h50zM362 731h300v-50h-300zM362 821h300v-50h-300z"  horiz-adv-x="1024" />

    
    <glyph glyph-name="ruler" unicode="&#59240;" d="M597 581.9l-260.4 260.3-282.8-282.8 633.6-633.6 282.8 282.8-373.2 373.3zM124.5 559.4l212.1 212.1 55-55-106-106.1 28.3-28.3 106.1 106.1 42.7-42.7-70.7-70.7 28.3-28.3 70.7 70.7 42.4-42.4-70.7-70.7 28.3-28.3 70.7 70.7 42.4-42.4-106.1-106.1 28.3-28.3 106.1 106.1 42.4-42.4-70.7-70.7 28.3-28.3 70.7 70.7 42.4-42.4-70.7-70.7 28.3-28.3 70.7 70.7 42.4-42.4-106.1-106.1 28.3-28.3 106.1 106.1 55-55-212.1-212.2-562.9 562.9z"  horiz-adv-x="1024" />

    
    <glyph glyph-name="weixing" unicode="&#58886;" d="M934.603175 738.336508l-139.784127 139.784127c-19.504762 19.504762-50.387302 19.504762-68.266667 0l-203.174603-203.174603c-19.504762-19.504762-19.504762-50.387302 0-68.266667l55.263492-55.263492-27.631746-27.631746-17.879365 17.879365c-26.006349 26.006349-60.139683 37.384127-92.647619 37.384127-43.885714 35.75873-100.774603 40.634921-133.28254 8.126984-32.507937-32.507937-27.631746-89.396825 8.126984-133.28254 0-34.133333 11.377778-66.64127 37.384127-92.647619l17.879365-17.879365-27.631746-27.631746-55.263492 55.263492c-19.504762 19.504762-50.387302 19.504762-68.266667 0l-203.174603-203.174603c-19.504762-19.504762-19.504762-50.387302 0-68.266666l139.784127-139.784127c19.504762-19.504762 50.387302-19.504762 68.266667 0l203.174603 203.174603c19.504762 19.504762 19.504762 50.387302 0 68.266666l-47.136508 47.136508 27.631746 27.631746 61.76508-61.765079c16.253968 37.384127 42.260317 74.768254 74.768254 107.27619 32.507937 32.507937 69.892063 58.514286 107.27619 74.768254l-61.765079 61.76508 27.631746 27.631746 47.136508-47.136508c19.504762-19.504762 50.387302-19.504762 68.266666 0l203.174603 203.174603c17.879365 17.879365 17.879365 48.761905-1.625396 66.64127zM887.466667 387.250794c-3.250794 3.250794-8.126984 6.501587-11.377778 8.126984 0 0-1.625397 0-1.625397 1.625397-3.250794 1.625397-4.87619 3.250794-8.126984 4.87619h-1.625397c-79.644444 43.885714-203.174603 13.003175-294.196825-78.019048-92.647619-92.647619-121.904762-214.552381-78.019048-294.196825 1.625397-3.250794 3.250794-4.87619 4.876191-8.126984 0 0 0-1.625397 1.625396-1.625397 3.250794-4.87619 6.501587-8.126984 8.126985-11.377778 34.133333-22.755556 110.526984 6.501587 191.796825 71.517461l-40.634921 32.507936c-48.761905-39.009524-87.771429-60.139683-99.149206-50.387301-14.628571 14.628571 34.133333 87.771429 108.901587 162.539682s147.911111 123.530159 162.539683 108.901587c9.752381-9.752381-8.126984-43.885714-42.260318-87.771428l32.507937-40.634921c61.765079 78.019048 89.396825 149.536508 66.64127 182.044445zM692.419048 169.447619c-13.003175 9.752381-13.003175 27.631746-1.625397 39.009524l4.87619 4.87619c11.377778 11.377778 29.257143 9.752381 39.009524-1.625396l43.885714-53.638096c9.752381-13.003175 9.752381-32.507937-1.625396-43.885714l14.628571 14.628571c-11.377778-11.377778-30.88254-13.003175-43.885714-1.625396l-55.263492 42.260317zM797.61473 147.53727c-20.691302 0-37.920508-17.229206-39.07454-36.78273 0-20.691302 16.091429-36.78273 39.07454-36.78273 20.691302 0 39.07454 16.091429 39.07454 36.78273-1.137778 21.845333-18.383238 36.78273-39.07454 36.78273M894.163302 147.53727c0-34.490921-13.799619-66.657524-40.228572-90.794667-25.291175-25.291175-58.61181-37.936762-95.410793-37.936762v-52.874158c105.748317 0 189.651302 81.594921 190.805333 181.605587h-55.165968M991.849651 148.675048c0-121.823492-104.594286-221.817905-233.309461-221.817905v-52.857905c158.606222 0 288.475429 122.977524 288.475429 274.692064h-55.165968"  horiz-adv-x="1056" />

    
    <glyph glyph-name="xinhao" unicode="&#58902;" d="M507.970065 562.456774l-18.068646-8.175484c-99.922581 87.073032-200.951742 125.819871-242.225548 87.320775-49.102452-45.78271 4.954839-183.560258 120.732903-307.712 115.778065-124.168258 249.426581-187.68929 298.545549-141.890065 37.921032 35.344516 14.319484 125.572129-51.695484 221.99329l7.927742 14.732387 74.652903 23.997936c77.741419-121.608258 105.637161-255.339355 36.071226-324.921807-92.45729-92.45729-341.454452-157.662968-519.068904 19.951484-177.614452 177.614452-122.021161 462.897548-29.563871 555.354839 74.438194 74.438194 211.356903 31.000774 334.98013-61.852903l-12.288-78.781936zM519.97729 387.336258c-17.292387-21.140645-46.955355-22.594065-66.295742-3.253677l-9.282064 9.282064c-19.323871 19.323871-17.804387 49.052903 3.253677 66.295742l97.792 80.004129c21.124129 17.275871 53.826065 15.706839 73.331613-3.79871l-22.577548 22.577549c19.356903-19.356903 21.008516-52.257032 3.765677-73.315097l-79.987613-97.792zM590.220387 577.7837420000001c0-26.706581 20.711226-48.276645 46.228645-48.276645 25.6 0 46.278194 21.570065 46.278194 48.276645 0 26.590968-20.678194 48.392258-46.278194 48.392258-25.517419 0-46.228645-21.80129-46.228645-48.392258M590.220387 700.20129c43.338323 0 84.100129-17.771355 114.787097-49.96129 30.637419-32.107355 47.566452-75.032774 47.566451-120.633806h66.840775c0 132.541935-102.845935 240.359226-229.194323 240.359225v-69.764129M590.220387 823.890581c154.557935 0 280.36129-132.013419 280.36129-294.234839h66.758194c0 200.670968-155.747097 364.048516-347.119484 364.048516v-69.813677M198.193548-45.419354999999996l412.903226 0 0-82.580645-412.903226 0 0 82.580645ZM330.322581 169.29032299999994l82.580645 0 0-280.774194-82.580645 0 0 280.774194Z"  horiz-adv-x="1024" />

    
    <glyph glyph-name="printer" unicode="&#59282;" d="M812 656.2v169.8h-600v-169.8h-140v-480h144.7v50h-94.7v380h780v-380h-94.7v-50h144.7v480h-140zM262 656.2v119.8h500v-119.8h-500zM647 159.6h-270v50h270v-50zM377 113.9h207.6v-50h-207.6v50zM287 464.3h-80v50h80v-50zM387 514.3v-50h-50v50h50zM817 327h-610v-50h55v-335h500v335h55v50zM712-8h-400v285h400v-285z"  horiz-adv-x="1024" />

    
    <glyph glyph-name="people" unicode="&#58899;" d="M512 355.5c-59.1 0-114.7 23-156.5 64.8s-64.8 97.4-64.8 156.5 23 114.7 64.8 156.5S452.9 798.1 512 798.1s114.7-23 156.5-64.8 64.8-97.4 64.8-156.5-23-114.7-64.8-156.5-97.4-64.8-156.5-64.8z m0 392.7c-94.5 0-171.3-76.9-171.3-171.3S417.5 405.5 512 405.5c94.5 0 171.3 76.9 171.3 171.3S606.5 748.2 512 748.2zM899.4-30.600000000000023c-13.8 0-25 11.2-25 25 0 115.6-53.3 221.6-146.1 290.8-11.1 8.2-13.4 23.9-5.1 35 8.2 11.1 23.9 13.4 35 5.1 50.5-37.6 92.3-87 120.9-142.8 30.1-58.6 45.3-121.8 45.3-188.1 0-13.8-11.2-25-25-25zM124.6-31.899999999999977c-13.8 0-25 11.2-25 25 0 55.7 10.9 109.7 32.4 160.5 20.8 49.1 50.5 93.2 88.4 131.1s82 67.6 131.1 88.4c50.9 21.5 104.9 32.4 160.5 32.4 13.8 0 25-11.2 25-25s-11.2-25-25-25c-199.8 0-362.4-162.6-362.4-362.4 0-13.8-11.2-25-25-25z"  horiz-adv-x="1024" />

    
    <glyph glyph-name="time" unicode="&#58907;" d="M511.3-63.5c-60.4 0-119 11.8-174.1 35.2-53.3 22.5-101.1 54.8-142.2 95.9-41.1 41.1-73.3 88.9-95.9 142.2C75.8 264.9 64 323.5 64 383.9c0 87.8 25.4 172.8 73.5 245.8 7.6 11.5 23.1 14.7 34.6 7.1s14.7-23.1 7.1-34.6C136.5 537.4 114 461.9 114 383.9c0-219.1 178.3-397.4 397.4-397.4 219.1 0 397.4 178.3 397.4 397.4 0 219.1-178.3 397.4-397.4 397.4C440 781.2 370 762.1 309 726c-11.9-7-27.2-3.1-34.3 8.8-7 11.9-3.1 27.2 8.8 34.3C352.3 809.7 431 831.2 511.3 831.2c60.4 0 119-11.8 174.1-35.2 53.3-22.5 101.1-54.8 142.2-95.9 41.1-41.1 73.3-88.9 95.9-142.2 23.3-55.2 35.2-113.8 35.2-174.1 0-60.4-11.8-119-35.2-174.1-22.5-53.3-54.8-101.1-95.9-142.2s-88.9-73.3-142.2-95.9c-55.1-23.3-113.7-35.1-174.1-35.1zM671.5 227.79999999999995c-5.6 0-11.2 1.9-15.8 5.7l-160.2 131c-5.8 4.7-9.2 11.9-9.2 19.3V575.2c0 13.8 11.2 25 25 25s25-11.2 25-25v-179.4l151-123.6c10.7-8.7 12.3-24.5 3.5-35.2-4.8-6.1-12-9.2-19.3-9.2z"  horiz-adv-x="1024" />

    
    <glyph glyph-name="shuixi" unicode="&#58905;" d="M526.7 825.9c-8.2 8-21.3 8-29.5 0C437.5 768.1 217 481.5 217 248.6c0-162.9 132.1-312.5 295-312.5s295 132.1 295 295c0 250.4-220.6 536.8-280.3 594.8zM404.3 88.8c-5.1-3.2-10.8-4.8-16.4-4.8-10.2 0-20.1 5-26 14.3-23 36.3-37.2 77.6-41 119.3-2.5 28.2-2.6 57.2-0.3 86.2 1.4 16.9 16.2 29.5 33.1 28.1 16.9-1.4 29.5-16.2 28.1-33.1-2.1-25.6-2-51 0.3-75.7 2.9-32 13.9-63.8 31.7-91.9 9-14.4 4.8-33.3-9.5-42.4z"  horiz-adv-x="1024" />

    
    <glyph glyph-name="quanping" unicode="&#60435;" d="M368.896 704H224a32 32 0 0 1-32-32v-137.888a32 32 0 0 1 64 0V640h112.896a32 32 0 0 1 0 64zM784.864 704H640a32 32 0 1 1 0-64h112.864v-105.888a32 32 0 1 1 64 0V672a32 32 0 0 1-32 32zM368.896 118.08H256V224a32 32 0 1 1-64 0v-137.92a32 32 0 0 1 32-32h144.896a32 32 0 1 1 0 64zM784.864 256a32 32 0 0 1-32-32v-105.92H640a32 32 0 1 1 0-64h144.864a32 32 0 0 1 32 32V224a32 32 0 0 1-32 32zM912 848h-800c-35.296 0-64-28.704-64-64v-800c0-35.296 28.704-64 64-64h800c35.296 0 64 28.704 64 64v800c0 35.296-28.704 64-64 64z m-800-864v800h800l0.064-800H112z"  horiz-adv-x="1024" />

    
    <glyph glyph-name="subgroup" unicode="&#59365;" d="M639 559v-560H99V559h540m50 50H49v-660h640V609zM189 719v-59h50v9h540v-560h-42v-50h92V719H189zM309 819v-50h590v-560h-22v-50h72V819H309z"  horiz-adv-x="1024" />

    
    <glyph glyph-name="kuaitui" unicode="&#59379;" d="M113.6 384l445 332.3v-262.8l351.9 262.8v-664.5l-352 262.7v-262.8L113.6 384z"  horiz-adv-x="1024" />

    
    <glyph glyph-name="kuaijin" unicode="&#59380;" d="M465.5 51.7V314.5L113.6 51.7V716.3l351.9-262.8V716.3l445-332.3-445-332.3z"  horiz-adv-x="1024" />

    
    <glyph glyph-name="tingzhi" unicode="&#59381;" d="M797.8 98.20000000000005H226.2V669.8h571.5v-571.6z"  horiz-adv-x="1024" />

    
    <glyph glyph-name="bofang" unicode="&#59382;" d="M289.5 51.700000000000045V716.3l445-332.3-445-332.3z"  horiz-adv-x="1024" />

    
    <glyph glyph-name="shuiqing" unicode="&#58889;" d="M460.918 757.9590000000001c0 14.536-11.768 26.413-26.42 26.413-14.536 0-26.42-11.775-26.42-26.413 0-121.792-60.003-186.58-123.498-255.149-61.644-66.632-125.543-135.518-125.543-254.86 0-73.795 28.776-143.181 81.002-195.384 52.225-52.196 121.654-80.958 195.486-80.958s143.361 28.661 195.587 80.864c52.233 52.189 81.002 121.589 81.002 195.384 0 119.536-64.413 188.423-126.671 255.048-64.001 68.576-124.525 133.264-124.525 255.055zM592.1 309.36300000000006c9.115-19.546 13.618-39.814 13.618-62.121-0.101-18.837-3.694-37.053-10.857-54.351-4.2-10.127-14.03-16.271-24.367-16.271-3.376 0-6.759 0.614-10.141 2.038-13.517 5.638-19.871 20.984-14.24 34.494 4.518 10.85 6.766 22.314 6.766 33.981 0 14.428-2.768 27.432-8.602 39.814-6.144 13.206-0.513 28.87 12.693 35.108 13.213 6.146 28.884 0.507 35.13-12.692z m224.059 353.058c-27.728 29.709-53.946 57.733-53.946 110.501 0 6.303-5.103 11.45-11.45 11.45-6.296 0-11.443-5.103-11.443-11.45 0-52.768-26.001-80.836-53.512-110.544-26.709-28.87-54.394-58.716-54.394-110.421 0-31.971 12.469-62.034 35.094-84.652 22.625-22.61 52.71-35.072 84.695-35.072 31.993 0 62.121 12.411 84.746 35.029 22.625 22.618 35.087 52.681 35.087 84.652 0.002 51.798-27.9 81.637-54.877 110.507z m4.084-134.318c-1.822-4.388-6.079-7.055-10.561-7.055-1.467 0-2.927 0.267-4.395 0.889a11.402 11.402 0 0 0-6.166 14.948 38.205 38.205 0 0 1 2.927 14.717c0 6.253-1.2 11.884-3.723 17.254a11.456 11.456 0 0 0 5.501 15.209c5.718 2.66 12.512 0.224 15.216-5.501 3.947-8.464 5.906-17.247 5.906-26.919-0.05-8.16-1.604-16.046-4.705-23.542z"  horiz-adv-x="1024" />

    
    <glyph glyph-name="gongshui" unicode="&#58890;" d="M306.039 80.57299999999998c-9.091 21.219-17.474 40.397-19.357 44.939-5.971 13.997-19.103 17.213-29.114 14.155-7.565-1.958-36.281-10.094-44.053-11.709a19.162 19.162 0 0 1-12.582-8.85c-4.762-9.07-1.683-20.614 0.79-26.641 1.044-2.089 3.848-9.902 8.239-20.394 11.104-27.273 29.527-72.631 32.722-81.434 3.154-8.747 8.369-13.846 13.977-16.278a25.276 25.276 0 0 1 17.447-0.584l4.171 1.477c10.128 3.395 27.025 8.761 37.869 11.091 10.396 2.061 14.76 7.552 16.883 11.503 2.171 3.992 3.779 10.307-0.076 19.323-1.375 4.774-14.809 35.696-26.916 63.402z m469.972 58.805c-4.865 30.626-33.327 29.643-52.257 19.398-7.249-3.896-19.501-12.375-33.581-22.641-25.844-18.402-64.592-41.689-76.314-41.071-15.042 0.818-53.79 9.572-103.244 29.877-15.468 6.294-17.941 12.582-18.697 13.942a10.055 10.055 0 0 0 4.7 3.992c3.772 0.22 28.936-3.12 50.759-6.315 24.82-3.25 50.23-6.707 63.726-7.772 16.382-1.258 26.723 11.73 29.829 25.369 1.498 7.215 4.04 19.996-8.046 32.179l-186.793 5.009c-42.019 14.959-146.946-12.334-146.946-12.334l-0.914-19.556 58.861-147.674 16.581-1.896 1.663 0.721c0.33-0.082 25.287 13.282 42.94 14.141 7.847 0.268 33.141-8.259 57.713-16.704 32.921-11.139 70.281-16.141 90.524-16.601 24.73-0.392 85.323 29.156 179.943 103.47l1.312 0.831c8.575 5.98 30.763 27.453 28.241 43.635zM511.68 239.07600000000002c51.213 0 99.437 19.666 135.656 55.473 36.219 35.807 56.174 83.419 56.174 134.048 0 82.011-44.664 129.273-87.845 174.981-44.39 47.049-86.367 91.425-86.367 174.981 0 9.97-8.17 18.12-18.326 18.12-10.08 0-18.326-8.074-18.326-18.12 0-83.557-41.613-128.008-85.653-175.05-42.747-45.716-87.068-92.971-87.068-174.844 0-50.629 19.962-98.234 56.181-134.048 36.22-35.806 84.375-55.541 135.574-55.541z m84.237 240.425c9.16 4.219 20.03 0.35 24.359-8.706 6.322-13.406 9.448-27.314 9.448-42.624-0.076-12.918-2.563-25.417-7.531-37.284-2.914-6.947-9.73-11.159-16.904-11.159-2.343 0-4.686 0.419-7.029 1.402-9.38 3.862-13.777 14.396-9.874 23.665a59.939 59.939 0 0 1 4.693 23.308c0 9.902-1.924 18.821-5.971 27.314-4.26 9.063-0.357 19.803 8.809 24.084z"  horiz-adv-x="1024" />

    
    <glyph glyph-name="fadian" unicode="&#58891;" d="M817.057 797.487H202.696c-14.377 0-26.032-11.656-26.032-26.04v-777.695c0-14.384 11.656-26.047 26.032-26.047h614.361c14.377 0 26.032 11.663 26.032 26.047V771.447c0 14.384-11.656 26.04-26.032 26.04zM321.576 86.74800000000005h-32.974c-13.899 0-25.172 11.266-25.172 25.164 0 13.906 11.273 25.172 25.172 25.172h32.974c13.899 0 25.165-11.266 25.165-25.172 0-13.898-11.266-25.164-25.165-25.164z m0 111.093h-32.974c-13.899 0-25.172 11.273-25.172 25.179 0 13.899 11.273 25.165 25.172 25.165h32.974c13.899 0 25.165-11.266 25.165-25.165 0-13.906-11.266-25.179-25.165-25.179z m46.63 325.896l229.65 198.169L511.81 554.13l129.073-38.004-245.71-182.006 96.135 150.347-123.102 39.27zM731.15 86.74800000000005H427.44c-13.899 0-25.172 11.266-25.172 25.164 0 13.906 11.273 25.172 25.172 25.172h303.71c13.891 0 25.157-11.266 25.157-25.172 0.001-13.898-11.265-25.164-25.157-25.164z m0 111.093H427.44c-13.899 0-25.172 11.273-25.172 25.179 0 13.899 11.273 25.165 25.172 25.165h303.71c13.891 0 25.157-11.266 25.157-25.165 0.001-13.906-11.265-25.179-25.157-25.179z"  horiz-adv-x="1024" />

    


  </font>
</defs>
</svg>
